<svg width="65.349" height="22" version="1.1" viewBox="0 0 65.349 22" xmlns="http://www.w3.org/2000/svg" fill="#000">
	<path d="m18.614 20.43c3.7059 0 6.6874-2.9931 6.6874-6.6724h1e-4v-12.953h1.5813v12.952c0 4.5448-3.6993 8.2425-8.2771 8.2425-1.9408 0-3.6992-0.6696-5.1144-1.7817-1.4152 1.1121-3.2152 1.7817-5.156 1.7817-4.5778 0-8.3353-3.6977-8.3353-8.2425v-12.952h1.5813v12.953c0 3.6792 3.0314 6.6724 6.7373 6.6724 1.4928 0 2.8852-0.4915 4.0018-1.312-1.2484-1.4428-2.0417-3.3136-2.0417-5.3604l0.0027-10.618c0-1.7314 1.4188-3.14 3.1627-3.14s3.1626 1.4087 3.1626 3.14l-0.0027 10.618c0 2.0467-0.7433 3.9176-1.9918 5.3604 1.1166 0.8205 2.5092 1.312 4.0018 1.312zm-6.754-6.6725c0 1.6334 0.5962 3.1297 1.5813 4.2908 0.9851-1.1611 1.5813-2.6574 1.5813-4.2907l0.0028-10.618c0-0.86587-0.7094-1.57-1.5813-1.57s-1.5813 0.7041-1.5813 1.57zm19.769-12.995h1.5813v20.822h-1.5813zm7.9066 3.5881c1.6403-2.3835 4.3986-3.9511 7.5191-3.9511v1.5729c-4.1456 0-7.5183 3.3482-7.5183 7.4636h-8e-4v12.148h-1.5814v-20.822h1.5814zm25.813-0.21264c-0.1713-0.19682-0.3506-0.38903-0.5386-0.57593-4.2389-4.2124-11.136-4.2124-15.375 0-4.2389 4.2124-4.2389 11.066 0 15.279 4.2382 4.2118 11.134 4.2124 15.373 0.0018l-1.1182-1.1112c-3.4341 3.4107-8.9078 3.587-12.554 0.5299l6.5433-6.5024zm-14.795 0.53527c-3.434 3.4125-3.612 8.8534-0.5351 12.477l13.09-13.009c-3.6462-3.0576-9.1214-2.8808-12.555 0.53173z" clip-rule="evenodd" fill-rule="evenodd" />
</svg>
